<svg xmlns="http://www.w3.org/2000/svg" xmlns:xlink="http://www.w3.org/1999/xlink" width="80.892" height="72.823" viewBox="0 0 80.892 72.823">
  <defs>
    <linearGradient id="linear-gradient" x1="0.5" y1="1" x2="0.5" gradientUnits="objectBoundingBox">
      <stop offset="0" stop-color="#fff" stop-opacity="0"/>
      <stop offset="0" stop-color="#fff" stop-opacity="0.208"/>
      <stop offset="1" stop-color="#c5c3c3"/>
    </linearGradient>
  </defs>
  <g id="パス_5" data-name="パス 5" transform="translate(84.446 78) rotate(180)" fill="url(#linear-gradient)">
    <path d="M39.645,7.72a5,5,0,0,1,8.71,0L83.794,70.543A5,5,0,0,1,79.439,78H8.561a5,5,0,0,1-4.355-7.457Z" stroke="none"/>
    <path d="M 43.99999618530273 6.1766357421875 C 42.53718566894531 6.1766357421875 41.23479461669922 6.937278747558594 40.51608657836914 8.211357116699219 L 5.077262878417969 71.03471374511719 C 4.370872497558594 72.28695678710938 4.382026672363281 73.77577209472656 5.10711669921875 75.01728820800781 C 5.832199096679688 76.25880432128906 7.123428344726563 77 8.561172485351563 77 L 79.43881988525391 77 C 80.87656402587891 77 82.16779327392578 76.2587890625 82.89288330078125 75.01728057861328 C 83.61796569824219 73.77577209472656 83.62911987304688 72.28695678710938 82.9227294921875 71.03471374511719 L 47.48390579223633 8.211357116699219 C 46.76519775390625 6.937278747558594 45.46280670166016 6.1766357421875 43.99999618530273 6.1766357421875 M 43.99999618530273 5.1766357421875 C 45.69919586181641 5.1766357421875 47.39839553833008 6.024436950683594 48.35488510131836 7.720039367675781 L 83.79370880126953 70.54338836669922 C 85.67390441894531 73.87648010253906 83.26564025878906 77.99999237060547 79.43881988525391 78 L 8.561172485351563 78 C 4.734352111816406 78 2.326087951660156 73.87648010253906 4.206283569335938 70.54338836669922 L 39.64510726928711 7.720039367675781 C 40.60159683227539 6.024436950683594 42.30079650878906 5.1766357421875 43.99999618530273 5.1766357421875 Z" stroke="none" fill="rgba(255,255,255,0)"/>
  </g>
</svg>
