<svg id="左向きボタン" xmlns="http://www.w3.org/2000/svg" xmlns:xlink="http://www.w3.org/1999/xlink" width="53" height="60" viewBox="0 0 53 60">
  <defs>
    <linearGradient id="linear-gradient" x1="0.5" y1="1" x2="0.5" gradientUnits="objectBoundingBox">
      <stop offset="0" stop-color="#fff" stop-opacity="0"/>
      <stop offset="0" stop-color="#fff" stop-opacity="0.208"/>
      <stop offset="1" stop-color="#c5c3c3"/>
    </linearGradient>
  </defs>
  <g id="多角形_19" data-name="多角形 19" transform="translate(0 60) rotate(-90)" fill="url(#linear-gradient)">
    <path d="M25.649,7.687a5,5,0,0,1,8.7,0l21.424,37.85A5,5,0,0,1,51.424,53H8.576a5,5,0,0,1-4.351-7.463Z" stroke="none"/>
    <path d="M 29.99999237060547 6.150257110595703 C 28.53965187072754 6.150257110595703 27.23833084106445 6.908985137939453 26.51897048950195 8.179866790771484 L 5.094593048095703 46.02960586547852 C 4.385761260986328 47.28187561035156 4.395282745361328 48.77164459228516 5.120071411132813 50.01474761962891 C 5.844860076904297 51.25784683227539 7.136650085449219 52.00000762939453 8.57562255859375 52.00000762939453 L 51.42438125610352 51.99999618530273 C 52.86334991455078 51.99999618530273 54.15514373779297 51.25784683227539 54.87993240356445 50.01474761962891 C 55.60472106933594 48.77164459228516 55.61424255371094 47.28186798095703 54.90541076660156 46.02960586547852 L 33.48102188110352 8.179866790771484 C 32.76166152954102 6.908985137939453 31.46034240722656 6.150257110595703 29.99999237060547 6.150257110595703 M 29.99999618530273 5.150257110595703 C 31.69695854187012 5.150257110595703 33.3939208984375 5.995925903320313 34.35128021240234 7.687267303466797 L 55.77567291259766 45.53700637817383 C 57.66236114501953 48.87015533447266 55.25446319580078 52.99999618530273 51.42438125610352 52.99999618530273 L 8.57562255859375 53.00000762939453 C 4.745540618896484 52.99999618530273 2.337642669677734 48.87016677856445 4.224330902099609 45.53700637817383 L 25.64871215820313 7.687267303466797 C 26.60607147216797 5.995925903320313 28.30303382873535 5.150257110595703 29.99999618530273 5.150257110595703 Z" stroke="none" fill="rgba(255,255,255,0)"/>
  </g>
</svg>
