<svg xmlns="http://www.w3.org/2000/svg" xmlns:xlink="http://www.w3.org/1999/xlink" width="80.998" height="73.724" viewBox="0 0 80.998 73.724">
  <defs>
    <linearGradient id="linear-gradient" x1="0.5" y1="1" x2="0.5" gradientUnits="objectBoundingBox">
      <stop offset="0" stop-color="#fff" stop-opacity="0"/>
      <stop offset="0" stop-color="#fff" stop-opacity="0.208"/>
      <stop offset="1" stop-color="#c5c3c3"/>
    </linearGradient>
  </defs>
  <g id="パス_4" data-name="パス 4" transform="translate(-3.501 -5.276)" fill="url(#linear-gradient)">
    <path d="M39.632,7.843a5,5,0,0,1,8.736,0L83.86,71.567A5,5,0,0,1,79.492,79H8.508A5,5,0,0,1,4.14,71.567Z" stroke="none"/>
    <path d="M 44 6.275772094726563 C 42.52804565429688 6.275772094726563 41.22167587280273 7.043495178222656 40.50545501708984 8.329437255859375 L 5.013481140136719 72.05367279052734 C 4.31610107421875 73.30579376220703 4.333290100097656 74.791015625 5.0594482421875 76.02665710449219 C 5.785614013671875 77.26230621337891 7.074798583984375 78 8.508018493652344 78 L 79.49197387695313 78 C 80.92520141601563 78 82.21437835693359 77.26230621337891 82.94054412841797 76.02667236328125 C 83.66670989990234 74.79102325439453 83.68389892578125 73.30579376220703 82.98651885986328 72.05367279052734 L 47.49453353881836 8.329437255859375 C 46.77831268310547 7.043495178222656 45.47194290161133 6.275772094726563 44 6.275772094726563 M 44 5.275764465332031 C 45.70749282836914 5.275764465332031 47.41498947143555 6.131462097167969 48.36816787719727 7.842857360839844 L 83.86015319824219 71.56709289550781 C 85.71635437011719 74.89984130859375 83.30677795410156 79 79.49197387695313 79 L 8.508018493652344 79 C 4.693222045898438 79 2.28363037109375 74.89984130859375 4.139846801757813 71.56709289550781 L 39.63182067871094 7.842857360839844 C 40.58500671386719 6.131462097167969 42.29250335693359 5.275764465332031 44 5.275764465332031 Z" stroke="none" fill="rgba(255,255,255,0)"/>
  </g>
</svg>
